<svg width="32" height="32" viewBox="0 0 32 32" fill="none" xmlns="http://www.w3.org/2000/svg">
<path d="M21.3333 28V25.3333C21.3333 23.9188 20.7714 22.5623 19.7712 21.5621C18.771 20.5619 17.4145 20 16 20H7.99999C6.5855 20 5.22895 20.5619 4.22875 21.5621C3.22856 22.5623 2.66666 23.9188 2.66666 25.3333V28" stroke="#0F3A29" stroke-width="2.66667" stroke-linecap="round" stroke-linejoin="round"/>
<path d="M21.3333 4.1709C22.477 4.46739 23.4899 5.13525 24.2129 6.06965C24.936 7.00405 25.3283 8.15208 25.3283 9.33357C25.3283 10.515 24.936 11.6631 24.2129 12.5975C23.4899 13.5319 22.477 14.1997 21.3333 14.4962" stroke="#0F3A29" stroke-width="2.66667" stroke-linecap="round" stroke-linejoin="round"/>
<path d="M29.3333 28.0005V25.3338C29.3325 24.1521 28.9392 23.0042 28.2152 22.0702C27.4912 21.1363 26.4775 20.4693 25.3333 20.1738" stroke="#0F3A29" stroke-width="2.66667" stroke-linecap="round" stroke-linejoin="round"/>
<path d="M12 14.6667C14.9455 14.6667 17.3333 12.2789 17.3333 9.33333C17.3333 6.38781 14.9455 4 12 4C9.05447 4 6.66666 6.38781 6.66666 9.33333C6.66666 12.2789 9.05447 14.6667 12 14.6667Z" stroke="#0F3A29" stroke-width="2.66667" stroke-linecap="round" stroke-linejoin="round"/>
</svg>
