<svg width="44" height="44" viewBox="0 0 44 44" fill="none" xmlns="http://www.w3.org/2000/svg">
<path d="M17.871 29.0005C17.6924 28.3084 17.3316 27.6767 16.8262 27.1713C16.3207 26.6658 15.6891 26.3051 14.997 26.1265L2.72695 22.9625C2.51761 22.9031 2.33337 22.777 2.20218 22.6034C2.07098 22.4298 2 22.2181 2 22.0005C2 21.7829 2.07098 21.5712 2.20218 21.3976C2.33337 21.224 2.51761 21.0979 2.72695 21.0385L14.997 17.8725C15.6888 17.6941 16.3203 17.3336 16.8258 16.8286C17.3312 16.3235 17.6921 15.6923 17.871 15.0005L21.035 2.7305C21.0938 2.52034 21.2197 2.33518 21.3936 2.20329C21.5675 2.07139 21.7797 2 21.9979 2C22.2162 2 22.4284 2.07139 22.6023 2.20329C22.7762 2.33518 22.9021 2.52034 22.961 2.7305L26.1229 15.0005C26.3015 15.6926 26.6623 16.3243 27.1677 16.8297C27.6732 17.3352 28.3048 17.6959 28.997 17.8745L41.267 21.0365C41.478 21.0947 41.664 21.2205 41.7966 21.3947C41.9292 21.5688 42.001 21.7816 42.001 22.0005C42.001 22.2194 41.9292 22.4322 41.7966 22.6063C41.664 22.7805 41.478 22.9063 41.267 22.9645L28.997 26.1265C28.3048 26.3051 27.6732 26.6658 27.1677 27.1713C26.6623 27.6767 26.3015 28.3084 26.1229 29.0005L22.959 41.2705C22.9001 41.4807 22.7742 41.6658 22.6003 41.7977C22.4264 41.9296 22.2142 42.001 21.996 42.001C21.7777 42.001 21.5655 41.9296 21.3916 41.7977C21.2177 41.6658 21.0918 41.4807 21.0329 41.2705L17.871 29.0005Z" stroke="white" stroke-width="4" stroke-linecap="round" stroke-linejoin="round"/>
</svg>
