<svg width="40" height="40" viewBox="0 0 40 40" fill="none" xmlns="http://www.w3.org/2000/svg">
<path d="M26.6667 35V31.6667C26.6667 29.8986 25.9643 28.2029 24.714 26.9526C23.4638 25.7024 21.7681 25 20 25H10C8.23189 25 6.53619 25.7024 5.28595 26.9526C4.03571 28.2029 3.33333 29.8986 3.33333 31.6667V35" stroke="#0F3A29" stroke-width="3.33333" stroke-linecap="round" stroke-linejoin="round"/>
<path d="M26.6667 5.21289C28.0963 5.58351 29.3623 6.41833 30.2661 7.58633C31.1699 8.75433 31.6603 10.1894 31.6603 11.6662C31.6603 13.1431 31.1699 14.5781 30.2661 15.7461C29.3623 16.9141 28.0963 17.7489 26.6667 18.1196" stroke="#0F3A29" stroke-width="3.33333" stroke-linecap="round" stroke-linejoin="round"/>
<path d="M36.6667 35.0001V31.6668C36.6656 30.1897 36.1739 28.7548 35.2689 27.5873C34.364 26.4199 33.0969 25.5861 31.6667 25.2168" stroke="#0F3A29" stroke-width="3.33333" stroke-linecap="round" stroke-linejoin="round"/>
<path d="M15 18.3333C18.6819 18.3333 21.6667 15.3486 21.6667 11.6667C21.6667 7.98477 18.6819 5 15 5C11.3181 5 8.33333 7.98477 8.33333 11.6667C8.33333 15.3486 11.3181 18.3333 15 18.3333Z" stroke="#0F3A29" stroke-width="3.33333" stroke-linecap="round" stroke-linejoin="round"/>
</svg>
