<svg width="20" height="20" viewBox="0 0 20 20" fill="none" xmlns="http://www.w3.org/2000/svg">
<path d="M2.5 5.83333L9.0755 10.8052C9.63532 11.2071 10.3647 11.2071 10.9245 10.8052L17.5 5.83333" stroke="#4A5565" stroke-width="1.66667" stroke-linecap="round" stroke-linejoin="round"/>
<path d="M3.33333 4.16667H16.6667C17.1087 4.16667 17.5326 4.34226 17.8452 4.65482C18.1577 4.96738 18.3333 5.39131 18.3333 5.83333V14.1667C18.3333 14.6087 18.1577 15.0326 17.8452 15.3452C17.5326 15.6577 17.1087 15.8333 16.6667 15.8333H3.33333C2.89131 15.8333 2.46738 15.6577 2.15482 15.3452C1.84226 15.0326 1.66667 14.6087 1.66667 14.1667V5.83333C1.66667 5.39131 1.84226 4.96738 2.15482 4.65482C2.46738 4.34226 2.89131 4.16667 3.33333 4.16667Z" stroke="#4A5565" stroke-width="1.66667" stroke-linecap="round" stroke-linejoin="round"/>
</svg>
