<svg width="64" height="64" viewBox="0 0 64 64" fill="none" xmlns="http://www.w3.org/2000/svg">
<path d="M26.4987 41.3333C26.2606 40.4105 25.7796 39.5683 25.1056 38.8944C24.4317 38.2204 23.5895 37.7394 22.6667 37.5013L6.30667 33.2827C6.02755 33.2034 5.78189 33.0353 5.60697 32.8039C5.43204 32.5724 5.3374 32.2901 5.3374 32C5.3374 31.7099 5.43204 31.4276 5.60697 31.1961C5.78189 30.9647 6.02755 30.7966 6.30667 30.7173L22.6667 26.496C23.5892 26.2582 24.4312 25.7775 25.1051 25.1041C25.779 24.4307 26.2602 23.589 26.4987 22.6667L30.7173 6.30667C30.7958 6.02645 30.9637 5.77958 31.1955 5.60372C31.4274 5.42786 31.7104 5.33267 32.0013 5.33267C32.2923 5.33267 32.5753 5.42786 32.8071 5.60372C33.039 5.77958 33.2069 6.02645 33.2853 6.30667L37.5013 22.6667C37.7394 23.5895 38.2204 24.4317 38.8944 25.1057C39.5683 25.7796 40.4105 26.2606 41.3333 26.4987L57.6933 30.7147C57.9747 30.7923 58.2228 30.96 58.3996 31.1922C58.5764 31.4244 58.6721 31.7082 58.6721 32C58.6721 32.2918 58.5764 32.5756 58.3996 32.8078C58.2228 33.04 57.9747 33.2077 57.6933 33.2853L41.3333 37.5013C40.4105 37.7394 39.5683 38.2204 38.8944 38.8944C38.2204 39.5683 37.7394 40.4105 37.5013 41.3333L33.2827 57.6933C33.2042 57.9736 33.0363 58.2204 32.8045 58.3963C32.5727 58.5721 32.2897 58.6673 31.9987 58.6673C31.7077 58.6673 31.4247 58.5721 31.1929 58.3963C30.961 58.2204 30.7931 57.9736 30.7147 57.6933L26.4987 41.3333Z" stroke="#3F5F1D" stroke-width="5.33333" stroke-linecap="round" stroke-linejoin="round"/>
<path d="M53.3333 8V18.6667" stroke="#3F5F1D" stroke-width="5.33333" stroke-linecap="round" stroke-linejoin="round"/>
<path d="M58.6667 13.3333H48" stroke="#3F5F1D" stroke-width="5.33333" stroke-linecap="round" stroke-linejoin="round"/>
<path d="M10.6667 45.3333V50.6667" stroke="#3F5F1D" stroke-width="5.33333" stroke-linecap="round" stroke-linejoin="round"/>
<path d="M13.3333 48H8" stroke="#3F5F1D" stroke-width="5.33333" stroke-linecap="round" stroke-linejoin="round"/>
</svg>
