<svg width="24" height="24" viewBox="0 0 24 24" fill="none" xmlns="http://www.w3.org/2000/svg">
<path d="M21 2L19 4M11.3862 11.6138C12.1406 12.3681 12.6759 13.3158 12.9258 14.3527C13.1756 15.3897 13.1297 16.4743 12.7933 17.4857C12.457 18.4972 11.8437 19.3951 11.0215 20.0821C10.1993 20.7691 9.2013 21.2174 8.14029 21.3763C7.07929 21.5352 5.99503 21.3985 5.00592 20.9814C4.0168 20.5643 3.16604 19.8833 2.55053 19.0138C1.93502 18.1443 1.57869 17.1213 1.52167 16.0585C1.46465 14.9957 1.70929 13.9394 2.22799 13.0088C2.74669 12.0782 3.51842 11.3107 4.45704 10.7937C5.39567 10.2768 6.46389 10.0311 7.53961 10.0843C8.61533 10.1375 9.65286 10.488 10.5362 11.0988L10.5352 11.0997L12.5 13.0645M11.3862 11.6138L14.5 8.5M11.3862 11.6138L10 13M14.5 8.5L17 11L19 9L16.5 6.5M14.5 8.5L16.5 6.5M16.5 6.5L19 4M19 4L21 6" stroke="#1447e6" stroke-width="2" stroke-linecap="round" stroke-linejoin="round"/>
</svg>
