<svg width="24" height="24" viewBox="0 0 40 40" fill="none" xmlns="http://www.w3.org/2000/svg">
<path d="M33.3334 21.6671C33.3334 30.0004 27.5 34.1671 20.5667 36.5838C20.2036 36.7068 19.8092 36.7009 19.45 36.5671C12.5 34.1671 6.66669 30.0004 6.66669 21.6671V10.0004C6.66669 9.5584 6.84228 9.13447 7.15484 8.82191C7.4674 8.50935 7.89133 8.33376 8.33335 8.33376C11.6667 8.33376 15.8334 6.33376 18.7334 3.80042C19.0864 3.49875 19.5356 3.33301 20 3.33301C20.4644 3.33301 20.9136 3.49875 21.2667 3.80042C24.1834 6.35042 28.3334 8.33376 31.6667 8.33376C32.1087 8.33376 32.5326 8.50935 32.8452 8.82191C33.1578 9.13447 33.3334 9.5584 33.3334 10.0004V21.6671Z" stroke="white" stroke-width="3.33333" stroke-linecap="round" stroke-linejoin="round"/>
</svg>
