<svg width="20" height="20" viewBox="0 0 20 20" fill="none" xmlns="http://www.w3.org/2000/svg">
<path d="M10 6.66667V10.8333" stroke="#ca3500" stroke-width="1.66667" stroke-linecap="round" stroke-linejoin="round"/>
<path d="M10 14.1667C10.4602 14.1667 10.8333 13.7936 10.8333 13.3333C10.8333 12.8731 10.4602 12.5 10 12.5C9.53976 12.5 9.16667 12.8731 9.16667 13.3333C9.16667 13.7936 9.53976 14.1667 10 14.1667Z" stroke="#ca3500" stroke-width="1.66667" stroke-linecap="round" stroke-linejoin="round"/>
<path d="M8.575 3.21667L1.51667 14.9C1.37247 15.1534 1.29836 15.444 1.30342 15.7395C1.30848 16.035 1.3925 16.323 1.54667 16.5717C1.70084 16.8203 1.91879 17.0203 2.17552 17.1502C2.43225 17.2801 2.71756 17.335 3.00001 17.3083H17C17.2825 17.335 17.5678 17.2801 17.8245 17.1502C18.0812 17.0203 18.2992 16.8203 18.4533 16.5717C18.6075 16.323 18.6915 16.035 18.6966 15.7395C18.7016 15.444 18.6275 15.1534 18.4833 14.9L11.425 3.21667C11.2772 2.97162 11.0645 2.77322 10.8125 2.64443C10.5605 2.51564 10.2787 2.46152 9.99999 2.46152C9.72131 2.46152 9.43947 2.51564 9.18749 2.64443C8.93551 2.77322 8.7228 2.97162 8.575 3.21667Z" stroke="#ca3500" stroke-width="1.66667" stroke-linecap="round" stroke-linejoin="round"/>
</svg>
